<svg width="21" height="21" viewBox="0 0 21 21" fill="none" xmlns="http://www.w3.org/2000/svg">
<path d="M10.4998 18.0007L9.2915 16.9173C7.88873 15.6534 6.729 14.5632 5.81234 13.6465C4.89567 12.7298 4.1665 11.9069 3.62484 11.1777C3.08317 10.4486 2.7047 9.77843 2.48942 9.16732C2.27414 8.55621 2.1665 7.93121 2.1665 7.29232C2.1665 5.98676 2.604 4.89648 3.479 4.02148C4.354 3.14648 5.44428 2.70898 6.74984 2.70898C7.47206 2.70898 8.15956 2.86176 8.81234 3.16732C9.46511 3.47287 10.0276 3.90343 10.4998 4.45898C10.9721 3.90343 11.5346 3.47287 12.1873 3.16732C12.8401 2.86176 13.5276 2.70898 14.2498 2.70898C15.5554 2.70898 16.6457 3.14648 17.5207 4.02148C18.3957 4.89648 18.8332 5.98676 18.8332 7.29232C18.8332 7.93121 18.7255 8.55621 18.5103 9.16732C18.295 9.77843 17.9165 10.4486 17.3748 11.1777C16.8332 11.9069 16.104 12.7298 15.1873 13.6465C14.2707 14.5632 13.1109 15.6534 11.7082 16.9173L10.4998 18.0007ZM10.4998 15.7507C11.8332 14.5562 12.9304 13.5319 13.7915 12.6777C14.6526 11.8236 15.3332 11.0805 15.8332 10.4486C16.3332 9.81662 16.6804 9.25412 16.8748 8.76107C17.0693 8.26801 17.1665 7.77843 17.1665 7.29232C17.1665 6.45898 16.8887 5.76454 16.3332 5.20898C15.7776 4.65343 15.0832 4.37565 14.2498 4.37565C13.5971 4.37565 12.9929 4.55968 12.4373 4.92773C11.8818 5.29579 11.4998 5.76454 11.2915 6.33398H9.70817C9.49984 5.76454 9.11789 5.29579 8.56234 4.92773C8.00678 4.55968 7.40261 4.37565 6.74984 4.37565C5.9165 4.37565 5.22206 4.65343 4.6665 5.20898C4.11095 5.76454 3.83317 6.45898 3.83317 7.29232C3.83317 7.77843 3.93039 8.26801 4.12484 8.76107C4.31928 9.25412 4.6665 9.81662 5.1665 10.4486C5.6665 11.0805 6.34706 11.8236 7.20817 12.6777C8.06928 13.5319 9.1665 14.5562 10.4998 15.7507Z" fill="#222222" fill-opacity="0.2"/>
</svg>
