<svg width="48" height="48" viewBox="0 0 48 48" fill="none" xmlns="http://www.w3.org/2000/svg">
<rect width="48" height="48" rx="24" fill="white"/>
<path d="M18.3077 33.5C17.8091 33.5 17.3831 33.3234 17.0298 32.9703C16.6766 32.6169 16.5 32.1909 16.5 31.6923V22.3077C16.5 21.8091 16.6766 21.3831 17.0298 21.0298C17.3831 20.6766 17.8091 20.5 18.3077 20.5H19.5V18.5C19.5 17.2513 19.9378 16.1892 20.8135 15.3135C21.6892 14.4378 22.7513 14 24 14C25.2487 14 26.3108 14.4378 27.1865 15.3135C28.0622 16.1892 28.5 17.2513 28.5 18.5V20.5H29.6923C30.1909 20.5 30.6169 20.6766 30.9703 21.0298C31.3234 21.3831 31.5 21.8091 31.5 22.3077V31.6923C31.5 32.1909 31.3234 32.6169 30.9703 32.9703C30.6169 33.3234 30.1909 33.5 29.6923 33.5H18.3077ZM18.3077 32H29.6923C29.7821 32 29.8558 31.9712 29.9135 31.9135C29.9712 31.8558 30 31.7821 30 31.6923V22.3077C30 22.2179 29.9712 22.1442 29.9135 22.0865C29.8558 22.0288 29.7821 22 29.6923 22H18.3077C18.2179 22 18.1442 22.0288 18.0865 22.0865C18.0288 22.1442 18 22.2179 18 22.3077V31.6923C18 31.7821 18.0288 31.8558 18.0865 31.9135C18.1442 31.9712 18.2179 32 18.3077 32ZM24 28.75C24.4858 28.75 24.899 28.5798 25.2395 28.2395C25.5798 27.899 25.75 27.4858 25.75 27C25.75 26.5142 25.5798 26.101 25.2395 25.7605C24.899 25.4202 24.4858 25.25 24 25.25C23.5142 25.25 23.101 25.4202 22.7605 25.7605C22.4202 26.101 22.25 26.5142 22.25 27C22.25 27.4858 22.4202 27.899 22.7605 28.2395C23.101 28.5798 23.5142 28.75 24 28.75ZM21 20.5H27V18.5C27 17.6667 26.7083 16.9583 26.125 16.375C25.5417 15.7917 24.8333 15.5 24 15.5C23.1667 15.5 22.4583 15.7917 21.875 16.375C21.2917 16.9583 21 17.6667 21 18.5V20.5Z" fill="#1F1F1F"/>
</svg>
