<svg width="1867" height="451" viewBox="0 0 1867 451" fill="none" xmlns="http://www.w3.org/2000/svg">
<path d="M532.8 169.6C530.933 166.667 529.2 162.667 527.6 157.6C526 152.533 525.2 147.2 525.2 141.6C525.2 131.2 527.467 123.733 532 119.2C536.8 114.667 542.933 112.4 550.4 112.4H724.8C726.667 115.333 728.4 119.333 730 124.4C731.6 129.467 732.4 134.8 732.4 140.4C732.4 150.8 730 158.267 725.2 162.8C720.667 167.333 714.667 169.6 707.2 169.6H662.8V354.4C659.867 355.2 655.2 356 648.8 356.8C642.667 357.6 636.533 358 630.4 358C624.267 358 618.8 357.467 614 356.4C609.467 355.6 605.6 354 602.4 351.6C599.2 349.2 596.8 345.867 595.2 341.6C593.6 337.333 592.8 331.733 592.8 324.8V169.6H532.8ZM743.719 234.4C743.719 213.6 746.919 195.2 753.319 179.2C759.985 163.2 768.919 149.867 780.119 139.2C791.585 128.267 804.919 120 820.119 114.4C835.585 108.8 852.252 106 870.119 106C887.985 106 904.519 108.8 919.719 114.4C935.185 120 948.652 128.267 960.119 139.2C971.585 149.867 980.519 163.2 986.919 179.2C993.585 195.2 996.919 213.6 996.919 234.4C996.919 255.2 993.719 273.733 987.319 290C980.919 306 971.985 319.467 960.519 330.4C949.319 341.067 935.985 349.2 920.519 354.8C905.052 360.4 888.252 363.2 870.119 363.2C851.985 363.2 835.185 360.4 819.719 354.8C804.252 348.933 790.919 340.533 779.719 329.6C768.519 318.667 759.719 305.2 753.319 289.2C746.919 273.2 743.719 254.933 743.719 234.4ZM815.719 234.4C815.719 258.667 820.652 276.8 830.519 288.8C840.385 300.8 853.585 306.8 870.119 306.8C886.919 306.8 900.252 300.8 910.119 288.8C919.985 276.8 924.919 258.667 924.919 234.4C924.919 210.4 919.985 192.4 910.119 180.4C900.519 168.4 887.319 162.4 870.519 162.4C853.985 162.4 840.652 168.4 830.519 180.4C820.652 192.133 815.719 210.133 815.719 234.4ZM1251.77 266.4C1251.77 280.8 1249.24 294 1244.17 306C1239.37 317.733 1232.3 327.867 1222.97 336.4C1213.64 344.667 1202.3 351.067 1188.97 355.6C1175.64 360.133 1160.57 362.4 1143.77 362.4C1126.97 362.4 1111.9 360.133 1098.57 355.6C1085.24 351.067 1073.9 344.667 1064.57 336.4C1055.24 327.867 1048.04 317.733 1042.97 306C1038.17 294 1035.77 280.8 1035.77 266.4V113.6C1038.7 113.067 1043.37 112.4 1049.77 111.6C1056.17 110.533 1062.3 110 1068.17 110C1074.3 110 1079.64 110.533 1084.17 111.6C1088.97 112.4 1092.97 114 1096.17 116.4C1099.37 118.8 1101.77 122.133 1103.37 126.4C1104.97 130.667 1105.77 136.267 1105.77 143.2V265.2C1105.77 278 1109.24 288 1116.17 295.2C1123.37 302.4 1132.57 306 1143.77 306C1155.24 306 1164.44 302.4 1171.37 295.2C1178.3 288 1181.77 278 1181.77 265.2V113.6C1184.7 113.067 1189.37 112.4 1195.77 111.6C1202.17 110.533 1208.3 110 1214.17 110C1220.3 110 1225.64 110.533 1230.17 111.6C1234.97 112.4 1238.97 114 1242.17 116.4C1245.37 118.8 1247.77 122.133 1249.37 126.4C1250.97 130.667 1251.77 136.267 1251.77 143.2V266.4ZM1372.19 277.6V354.4C1369.26 355.2 1364.59 356 1358.19 356.8C1352.06 357.6 1345.93 358 1339.79 358C1333.66 358 1328.19 357.467 1323.39 356.4C1318.86 355.6 1314.99 354 1311.79 351.6C1308.86 349.2 1306.59 345.867 1304.99 341.6C1303.39 337.333 1302.59 331.733 1302.59 324.8V136.4C1302.59 130.8 1304.06 126.533 1306.99 123.6C1310.19 120.4 1314.46 117.867 1319.79 116C1328.86 112.8 1339.39 110.533 1351.39 109.2C1363.39 107.6 1376.19 106.8 1389.79 106.8C1426.59 106.8 1454.33 114.533 1472.99 130C1491.66 145.467 1500.99 166.4 1500.99 192.8C1500.99 209.333 1496.73 223.467 1488.19 235.2C1479.66 246.933 1469.53 256 1457.79 262.4C1467.39 275.467 1476.86 287.733 1486.19 299.2C1495.53 310.667 1502.86 321.067 1508.19 330.4C1505.53 339.733 1500.59 346.933 1493.39 352C1486.46 356.8 1478.59 359.2 1469.79 359.2C1463.93 359.2 1458.86 358.533 1454.59 357.2C1450.33 355.867 1446.59 354 1443.39 351.6C1440.19 349.2 1437.26 346.267 1434.59 342.8C1431.93 339.333 1429.39 335.6 1426.99 331.6L1393.39 277.6H1372.19ZM1397.39 224.4C1407.53 224.4 1415.53 221.867 1421.39 216.8C1427.26 211.467 1430.19 203.733 1430.19 193.6C1430.19 183.467 1426.86 175.867 1420.19 170.8C1413.79 165.467 1403.53 162.8 1389.39 162.8C1385.39 162.8 1382.19 162.933 1379.79 163.2C1377.39 163.467 1374.73 163.867 1371.79 164.4V224.4H1397.39ZM1583.54 357.2C1572.08 357.2 1563.01 353.867 1556.34 347.2C1549.68 340.533 1546.34 331.467 1546.34 320V113.2C1549.28 112.667 1553.94 112 1560.34 111.2C1566.74 110.133 1572.88 109.6 1578.74 109.6C1584.88 109.6 1590.21 110.133 1594.74 111.2C1599.54 112 1603.54 113.6 1606.74 116C1609.94 118.4 1612.34 121.733 1613.94 126C1615.54 130.267 1616.34 135.867 1616.34 142.8V300.8H1707.94C1709.81 303.733 1711.54 307.733 1713.14 312.8C1714.74 317.6 1715.54 322.667 1715.54 328C1715.54 338.667 1713.28 346.267 1708.74 350.8C1704.21 355.067 1698.21 357.2 1690.74 357.2H1583.54ZM1821.42 354.4C1818.49 355.2 1813.82 356 1807.42 356.8C1801.29 357.6 1795.16 358 1789.02 358C1782.89 358 1777.42 357.467 1772.62 356.4C1768.09 355.6 1764.22 354 1761.02 351.6C1757.82 349.2 1755.42 345.867 1753.82 341.6C1752.22 337.333 1751.42 331.733 1751.42 324.8V113.6C1754.36 113.067 1759.02 112.4 1765.42 111.6C1771.82 110.533 1777.96 110 1783.82 110C1789.96 110 1795.29 110.533 1799.82 111.6C1804.62 112.4 1808.62 114 1811.82 116.4C1815.02 118.8 1817.42 122.133 1819.02 126.4C1820.62 130.667 1821.42 136.267 1821.42 143.2V354.4Z" fill="#4673F6"/>
<rect width="451" height="451" rx="99" fill="#4673F6"/>
<g filter="url(#filter0_i_50_178)">
<path d="M147 179C147 141.445 177.445 111 215 111V111V271C215 308.555 184.555 339 147 339V339V179Z" fill="white"/>
</g>
<g filter="url(#filter1_i_50_178)">
<path d="M231 275C231 235.235 263.235 203 303 203V203V268C303 307.765 270.765 340 231 340V340V275Z" fill="white"/>
</g>
<g filter="url(#filter2_i_50_178)">
<circle cx="268.947" cy="149.619" r="38.2463" fill="#A2D8FF"/>
<path d="M248.873 118.849L249.324 118.412L248.422 118.849L247.521 119.287L246.168 120.161L245.718 120.599L244.816 121.474L245.267 121.911L246.168 122.349H247.07L247.521 121.911L247.971 121.474V121.036V119.724L248.422 119.287L248.873 118.849Z" fill="#B1E5C5"/>
<path d="M243.464 122.349H243.915L244.816 123.224L246.168 124.099L247.07 124.974L247.971 125.411L249.324 126.286L249.774 126.723L250.225 127.598L250.676 128.473V129.348V130.223L250.225 131.098L249.324 131.535L248.422 131.098H247.521V131.973V132.41L247.971 133.285V133.723V134.598V135.473L247.07 135.91L246.168 136.785V137.66V138.097L245.718 138.535V138.972L245.267 139.41H244.816L244.365 139.847V140.285L243.915 140.722V141.16L243.464 141.597L243.013 142.035H242.562H241.661L240.759 141.597L239.858 141.16H239.407L238.505 140.722H237.604L236.252 140.285H234.899L234.449 140.722V141.16V142.035V142.472V143.347V144.222V144.659L234.899 145.097V145.534V145.972V146.847H234.449L233.547 146.409L232.646 145.534L231.744 144.222L232.195 141.16L232.646 139.847L233.096 138.535L233.547 136.785L233.998 135.473L234.449 134.598L234.899 133.723L235.35 132.848L235.801 131.535L236.252 130.661L236.702 130.223L237.153 129.348L237.604 128.473L238.055 128.036L238.505 127.598L238.956 126.723L239.407 126.286L239.858 125.848L240.309 125.411L240.759 124.974L241.21 124.536L241.661 124.099L242.112 123.661L242.562 123.224L243.013 122.786L243.464 122.349Z" fill="#B1E5C5"/>
<path d="M248.873 118.849L249.324 118.412L248.422 118.849L247.521 119.287L246.168 120.161L245.718 120.599L244.816 121.474L245.267 121.911L246.168 122.349H247.07L247.521 121.911L247.971 121.474V121.036V119.724L248.422 119.287L248.873 118.849Z" stroke="#B1E5C5"/>
<path d="M243.464 122.349H243.915L244.816 123.224L246.168 124.099L247.07 124.974L247.971 125.411L249.324 126.286L249.774 126.723L250.225 127.598L250.676 128.473V129.348V130.223L250.225 131.098L249.324 131.535L248.422 131.098H247.521V131.973V132.41L247.971 133.285V133.723V134.598V135.473L247.07 135.91L246.168 136.785V137.66V138.097L245.718 138.535V138.972L245.267 139.41H244.816L244.365 139.847V140.285L243.915 140.722V141.16L243.464 141.597L243.013 142.035H242.562H241.661L240.759 141.597L239.858 141.16H239.407L238.505 140.722H237.604L236.252 140.285H234.899L234.449 140.722V141.16V142.035V142.472V143.347V144.222V144.659L234.899 145.097V145.534V145.972V146.847H234.449L233.547 146.409L232.646 145.534L231.744 144.222L232.195 141.16L232.646 139.847L233.096 138.535L233.547 136.785L233.998 135.473L234.449 134.598L234.899 133.723L235.35 132.848L235.801 131.535L236.252 130.661L236.702 130.223L237.153 129.348L237.604 128.473L238.055 128.036L238.505 127.598L238.956 126.723L239.407 126.286L239.858 125.848L240.309 125.411L240.759 124.974L241.21 124.536L241.661 124.099L242.112 123.661L242.562 123.224L243.013 122.786L243.464 122.349Z" stroke="#B1E5C5"/>
<path d="M250.545 133.485V132.578L251.008 133.032V134.392L251.471 136.206L251.008 137.113L250.545 137.566H249.618L249.155 137.113L249.618 136.206L250.081 134.846L250.545 133.485Z" fill="#B1E5C5"/>
<path d="M248.691 142.554L250.081 141.647L250.545 142.554V143.914V144.821V145.728L250.081 146.635L249.618 147.088L249.155 147.995L248.228 148.902L246.838 149.355L245.448 149.809L244.521 148.902L244.058 148.448V147.088L244.984 145.274L246.374 143.914L248.691 142.554Z" fill="#B1E5C5"/>
<path d="M260.275 152.076L261.202 152.529V153.436H260.739H260.275H259.812L259.349 152.983L258.885 152.529L258.422 152.076L257.958 151.169L257.495 150.716L257.032 149.809V149.355H257.495H258.422L258.885 149.809L259.349 150.262L259.812 151.169L260.275 152.076Z" fill="#B1E5C5"/>
<path d="M254.715 153.89L255.642 153.436L256.105 154.343V155.703V156.61L256.568 157.064L257.032 157.97L257.958 158.877L258.885 159.784L259.349 161.144L259.812 162.051L260.275 162.958L260.739 163.865L260.275 164.772V166.132L259.349 166.586L258.885 167.946L257.958 168.853L257.032 169.306H256.105H255.178L253.788 168.399L252.861 167.039L251.935 166.586L251.008 167.039L249.155 167.492L247.764 167.946L245.911 168.853L243.131 169.306L242.667 168.399L242.204 167.039L240.351 163.865V162.505L240.814 161.144L243.131 160.691L244.984 160.238L245.448 159.784L245.911 158.424L246.374 157.517L247.301 155.703L247.764 155.25L248.691 154.796L249.155 155.25L250.081 155.703H251.008H251.471L252.398 155.25L253.325 154.796L254.252 154.343L254.715 153.89Z" fill="#B1E5C5"/>
<path d="M284.834 182.002L286.687 182.456V182.909L284.37 184.269L282.054 184.723L280.2 185.63L278.347 186.083L276.03 186.536H273.25L271.859 186.99H270.469H268.616H265.836L263.519 186.536L261.202 186.083L259.349 185.63L256.568 184.723L254.715 184.269L251.935 182.909L249.618 182.002L248.691 181.095L247.301 180.642L246.374 179.735L244.984 178.828H245.448H248.228H250.081H252.398L254.252 179.282H256.568L259.349 180.188L260.739 181.095L262.129 182.002H263.982L264.446 181.549L265.372 180.642L266.299 179.282L267.689 178.828H270.006L272.323 179.282L274.64 180.188L276.493 181.095L277.883 181.549L279.273 182.456L280.663 182.909H282.054L283.907 182.456L284.834 182.002Z" fill="#B1E5C5"/>
<path d="M263.056 113.534L261.665 112.628L262.592 112.174H264.446L266.299 111.721H268.616H270.006H271.859H272.786L275.103 112.174L276.493 112.628H277.42L278.81 113.081L280.2 113.534L281.59 113.988L282.98 114.441L285.297 115.348L286.687 115.802L287.614 116.708L288.541 117.162L289.004 117.615L289.931 118.069L291.784 119.429V119.882L292.248 120.789L291.784 121.696H290.857L289.931 122.15L288.077 122.603L287.151 123.51V124.87L288.541 126.23L289.467 127.137L290.394 128.498L290.857 129.858V132.125V134.392H290.394L289.467 133.939L289.004 132.578L288.077 131.672L285.76 131.218L283.444 131.672L281.127 132.578L280.2 133.485L278.347 135.299L277.883 136.659L277.42 138.926L277.883 140.287L278.347 141.647L278.81 143.007L279.737 143.914L281.127 144.368L282.054 143.914L282.98 143.007L283.907 142.554L285.297 142.1L286.687 142.554L287.614 143.461L289.004 144.368L290.394 147.542L292.248 148.902L294.101 149.355L295.954 149.809L297.808 150.716L299.198 151.169L300.125 152.983L300.588 154.343V157.064L299.661 158.877L298.271 160.691L295.491 163.412L295.028 164.318V165.679V168.399V169.76L294.564 170.666L293.174 172.027L291.321 173.84L289.931 179.282L289.467 177.921L288.541 175.654L287.614 174.294L286.687 172.934L285.297 168.853V167.492L284.834 165.679V164.318V163.412L284.37 162.051L283.907 160.691L283.444 159.331L282.98 158.424L281.59 156.61H279.737L278.81 156.157L277.42 155.703L276.956 155.25L276.03 153.436V152.076L275.566 150.262V148.448L276.03 147.542L276.493 145.728L277.42 144.821V143.007L276.493 141.647H276.03L275.566 140.74V138.926L274.64 137.566L273.25 136.206L271.859 135.299L270.933 133.939L270.006 133.032L269.079 131.218L268.616 128.498H267.689L265.836 127.591L264.909 127.137L264.446 124.87V123.51L264.909 121.696L263.982 120.336L263.056 119.429V118.522L263.519 117.615L263.982 116.255V114.895V114.441L263.056 113.534Z" fill="#B1E5C5"/>
<path d="M250.545 133.485V132.578L251.008 133.032V134.392L251.471 136.206L251.008 137.113L250.545 137.566H249.618L249.155 137.113L249.618 136.206L250.081 134.846L250.545 133.485Z" stroke="#B1E5C5"/>
<path d="M248.691 142.554L250.081 141.647L250.545 142.554V143.914V144.821V145.728L250.081 146.635L249.618 147.088L249.155 147.995L248.228 148.902L246.838 149.355L245.448 149.809L244.521 148.902L244.058 148.448V147.088L244.984 145.274L246.374 143.914L248.691 142.554Z" stroke="#B1E5C5"/>
<path d="M260.275 152.076L261.202 152.529V153.436H260.739H260.275H259.812L259.349 152.983L258.885 152.529L258.422 152.076L257.958 151.169L257.495 150.716L257.032 149.809V149.355H257.495H258.422L258.885 149.809L259.349 150.262L259.812 151.169L260.275 152.076Z" stroke="#B1E5C5"/>
<path d="M254.715 153.89L255.642 153.436L256.105 154.343V155.703V156.61L256.568 157.064L257.032 157.97L257.958 158.877L258.885 159.784L259.349 161.144L259.812 162.051L260.275 162.958L260.739 163.865L260.275 164.772V166.132L259.349 166.586L258.885 167.946L257.958 168.853L257.032 169.306H256.105H255.178L253.788 168.399L252.861 167.039L251.935 166.586L251.008 167.039L249.155 167.492L247.764 167.946L245.911 168.853L243.131 169.306L242.667 168.399L242.204 167.039L240.351 163.865V162.505L240.814 161.144L243.131 160.691L244.984 160.238L245.448 159.784L245.911 158.424L246.374 157.517L247.301 155.703L247.764 155.25L248.691 154.796L249.155 155.25L250.081 155.703H251.008H251.471L252.398 155.25L253.325 154.796L254.252 154.343L254.715 153.89Z" stroke="#B1E5C5"/>
<path d="M284.834 182.002L286.687 182.456V182.909L284.37 184.269L282.054 184.723L280.2 185.63L278.347 186.083L276.03 186.536H273.25L271.859 186.99H270.469H268.616H265.836L263.519 186.536L261.202 186.083L259.349 185.63L256.568 184.723L254.715 184.269L251.935 182.909L249.618 182.002L248.691 181.095L247.301 180.642L246.374 179.735L244.984 178.828H245.448H248.228H250.081H252.398L254.252 179.282H256.568L259.349 180.188L260.739 181.095L262.129 182.002H263.982L264.446 181.549L265.372 180.642L266.299 179.282L267.689 178.828H270.006L272.323 179.282L274.64 180.188L276.493 181.095L277.883 181.549L279.273 182.456L280.663 182.909H282.054L283.907 182.456L284.834 182.002Z" stroke="#B1E5C5"/>
<path d="M263.056 113.534L261.665 112.628L262.592 112.174H264.446L266.299 111.721H268.616H270.006H271.859H272.786L275.103 112.174L276.493 112.628H277.42L278.81 113.081L280.2 113.534L281.59 113.988L282.98 114.441L285.297 115.348L286.687 115.802L287.614 116.708L288.541 117.162L289.004 117.615L289.931 118.069L291.784 119.429V119.882L292.248 120.789L291.784 121.696H290.857L289.931 122.15L288.077 122.603L287.151 123.51V124.87L288.541 126.23L289.467 127.137L290.394 128.498L290.857 129.858V132.125V134.392H290.394L289.467 133.939L289.004 132.578L288.077 131.672L285.76 131.218L283.444 131.672L281.127 132.578L280.2 133.485L278.347 135.299L277.883 136.659L277.42 138.926L277.883 140.287L278.347 141.647L278.81 143.007L279.737 143.914L281.127 144.368L282.054 143.914L282.98 143.007L283.907 142.554L285.297 142.1L286.687 142.554L287.614 143.461L289.004 144.368L290.394 147.542L292.248 148.902L294.101 149.355L295.954 149.809L297.808 150.716L299.198 151.169L300.125 152.983L300.588 154.343V157.064L299.661 158.877L298.271 160.691L295.491 163.412L295.028 164.318V165.679V168.399V169.76L294.564 170.666L293.174 172.027L291.321 173.84L289.931 179.282L289.467 177.921L288.541 175.654L287.614 174.294L286.687 172.934L285.297 168.853V167.492L284.834 165.679V164.318V163.412L284.37 162.051L283.907 160.691L283.444 159.331L282.98 158.424L281.59 156.61H279.737L278.81 156.157L277.42 155.703L276.956 155.25L276.03 153.436V152.076L275.566 150.262V148.448L276.03 147.542L276.493 145.728L277.42 144.821V143.007L276.493 141.647H276.03L275.566 140.74V138.926L274.64 137.566L273.25 136.206L271.859 135.299L270.933 133.939L270.006 133.032L269.079 131.218L268.616 128.498H267.689L265.836 127.591L264.909 127.137L264.446 124.87V123.51L264.909 121.696L263.982 120.336L263.056 119.429V118.522L263.519 117.615L263.982 116.255V114.895V114.441L263.056 113.534Z" stroke="#B1E5C5"/>
</g>
<defs>
<filter id="filter0_i_50_178" x="147" y="111" width="68" height="230" filterUnits="userSpaceOnUse" color-interpolation-filters="sRGB">
<feFlood flood-opacity="0" result="BackgroundImageFix"/>
<feBlend mode="normal" in="SourceGraphic" in2="BackgroundImageFix" result="shape"/>
<feColorMatrix in="SourceAlpha" type="matrix" values="0 0 0 0 0 0 0 0 0 0 0 0 0 0 0 0 0 0 127 0" result="hardAlpha"/>
<feOffset dy="2"/>
<feGaussianBlur stdDeviation="5"/>
<feComposite in2="hardAlpha" operator="arithmetic" k2="-1" k3="1"/>
<feColorMatrix type="matrix" values="0 0 0 0 0 0 0 0 0 0 0 0 0 0 0 0 0 0 0.25 0"/>
<feBlend mode="normal" in2="shape" result="effect1_innerShadow_50_178"/>
</filter>
<filter id="filter1_i_50_178" x="231" y="203" width="72" height="139" filterUnits="userSpaceOnUse" color-interpolation-filters="sRGB">
<feFlood flood-opacity="0" result="BackgroundImageFix"/>
<feBlend mode="normal" in="SourceGraphic" in2="BackgroundImageFix" result="shape"/>
<feColorMatrix in="SourceAlpha" type="matrix" values="0 0 0 0 0 0 0 0 0 0 0 0 0 0 0 0 0 0 127 0" result="hardAlpha"/>
<feOffset dy="2"/>
<feGaussianBlur stdDeviation="5"/>
<feComposite in2="hardAlpha" operator="arithmetic" k2="-1" k3="1"/>
<feColorMatrix type="matrix" values="0 0 0 0 0 0 0 0 0 0 0 0 0 0 0 0 0 0 0.25 0"/>
<feBlend mode="normal" in2="shape" result="effect1_innerShadow_50_178"/>
</filter>
<filter id="filter2_i_50_178" x="230.701" y="111.221" width="76.4922" height="78.6445" filterUnits="userSpaceOnUse" color-interpolation-filters="sRGB">
<feFlood flood-opacity="0" result="BackgroundImageFix"/>
<feBlend mode="normal" in="SourceGraphic" in2="BackgroundImageFix" result="shape"/>
<feColorMatrix in="SourceAlpha" type="matrix" values="0 0 0 0 0 0 0 0 0 0 0 0 0 0 0 0 0 0 127 0" result="hardAlpha"/>
<feOffset dy="2"/>
<feGaussianBlur stdDeviation="5"/>
<feComposite in2="hardAlpha" operator="arithmetic" k2="-1" k3="1"/>
<feColorMatrix type="matrix" values="0 0 0 0 0 0 0 0 0 0 0 0 0 0 0 0 0 0 0.25 0"/>
<feBlend mode="normal" in2="shape" result="effect1_innerShadow_50_178"/>
</filter>
</defs>
</svg>
